<svg width="40" height="40" viewBox="0 0 40 40" fill="none" xmlns="http://www.w3.org/2000/svg">
<mask id="mask0_13_2034" style="mask-type:alpha" maskUnits="userSpaceOnUse" x="0" y="0" width="40" height="40">
<rect width="40" height="40" fill="#D9D9D9"/>
</mask>
<g mask="url(#mask0_13_2034)">
<path d="M20.0001 37.3718L14.3676 31.7222H25.6497L20.0001 37.3718ZM6.77383 27.5002C6.05744 27.5002 5.44383 27.2447 4.933 26.7339C4.42216 26.2231 4.16675 25.6095 4.16675 24.8931V8.44058C4.16675 7.72419 4.42216 7.11058 4.933 6.59975C5.44383 6.08891 6.05744 5.8335 6.77383 5.8335H33.2263C33.9427 5.8335 34.5563 6.08891 35.0672 6.59975C35.578 7.11058 35.8334 7.72419 35.8334 8.44058V24.8931C35.8334 25.6095 35.578 26.2231 35.0672 26.7339C34.5563 27.2447 33.9427 27.5002 33.2263 27.5002H6.77383ZM6.77383 25.406H33.2263C33.3547 25.406 33.4723 25.3527 33.5793 25.246C33.6859 25.1391 33.7392 25.0214 33.7392 24.8931V8.44058C33.7392 8.31225 33.6859 8.19461 33.5793 8.08766C33.4723 7.981 33.3547 7.92766 33.2263 7.92766H6.77383C6.6455 7.92766 6.52786 7.981 6.42092 8.08766C6.31425 8.19461 6.26091 8.31225 6.26091 8.44058V24.8931C6.26091 25.0214 6.31425 25.1391 6.42092 25.246C6.52786 25.3527 6.6455 25.406 6.77383 25.406ZM13.6047 23.0343H26.4126V20.4918H13.6047V23.0343ZM8.46383 17.9381H11.0063V15.3956H8.46383V17.9381ZM13.6047 17.9381H16.1476V15.3956H13.6047V17.9381ZM18.7288 17.9381H21.2713V15.3956H18.7288V17.9381ZM23.8697 17.9381H26.4126V15.3956H23.8697V17.9381ZM28.9938 17.9381H31.5363V15.3956H28.9938V17.9381ZM8.46383 12.8314H11.0063V10.2885H8.46383V12.8314ZM13.6047 12.8314H16.1476V10.2885H13.6047V12.8314ZM18.7288 12.8314H21.2713V10.2885H18.7288V12.8314ZM23.8697 12.8314H26.4126V10.2885H23.8697V12.8314ZM28.9938 12.8314H31.5363V10.2885H28.9938V12.8314Z" fill="#959595"/>
</g>
</svg>
