<svg width="40" height="40" viewBox="0 0 40 40" fill="none" xmlns="http://www.w3.org/2000/svg">
<mask id="mask0_13_1999" style="mask-type:alpha" maskUnits="userSpaceOnUse" x="0" y="0" width="40" height="40">
<rect width="40" height="40" fill="#D9D9D9"/>
</mask>
<g mask="url(#mask0_13_1999)">
<path d="M8.44034 34.1668C7.72395 34.1668 7.11034 33.9114 6.5995 33.4006C6.08867 32.8897 5.83325 32.2761 5.83325 31.5597V8.44058C5.83325 7.72419 6.08867 7.11058 6.5995 6.59975C7.11034 6.08891 7.72395 5.8335 8.44034 5.8335H31.5595C32.2759 5.8335 32.8895 6.08891 33.4003 6.59975C33.9112 7.11058 34.1666 7.72419 34.1666 8.44058V31.5597C34.1666 32.2761 33.9112 32.8897 33.4003 33.4006C32.8895 33.9114 32.2759 34.1668 31.5595 34.1668H8.44034ZM9.65575 22.0193L16.5703 15.1047L23.4399 21.9747L30.327 15.0877L32.0724 16.8335V8.44058C32.0724 8.29086 32.0244 8.16794 31.9283 8.07183C31.8321 7.97572 31.7092 7.92766 31.5595 7.92766H8.44034C8.29061 7.92766 8.1677 7.97572 8.07159 8.07183C7.97547 8.16794 7.92742 8.29086 7.92742 8.44058V20.291L9.65575 22.0193ZM8.44034 32.0727H31.5595C31.7092 32.0727 31.8321 32.0246 31.9283 31.9285C32.0244 31.8324 32.0724 31.7095 32.0724 31.5597V19.8077L30.327 18.0622L23.4399 24.9489L16.5703 18.0793L9.65575 24.9831L7.92742 23.2652V31.5597C7.92742 31.7095 7.97547 31.8324 8.07159 31.9285C8.1677 32.0246 8.29061 32.0727 8.44034 32.0727ZM7.92742 32.0727V19.8077V21.9018V7.92766V32.0727Z" fill="#959595"/>
</g>
</svg>
