<svg width="360" height="100" viewBox="0 0 360 100" fill="none" xmlns="http://www.w3.org/2000/svg">
<rect width="360" height="100" fill="white"/>
<mask id="mask0_13_1835" style="mask-type:alpha" maskUnits="userSpaceOnUse" x="115" y="18" width="48" height="48">
<rect x="115" y="18" width="48" height="48" fill="#D9D9D9"/>
</mask>
<g mask="url(#mask0_13_1835)">
<path d="M153.044 58L141.356 46.3111C140.467 47.0815 139.43 47.6815 138.246 48.1111C137.062 48.5407 135.802 48.7556 134.467 48.7556C131.262 48.7556 128.55 47.6444 126.33 45.4222C124.11 43.2 123 40.5185 123 37.3778C123 34.237 124.111 31.5556 126.333 29.3333C128.556 27.1111 131.244 26 134.4 26C137.556 26 140.237 27.1111 142.444 29.3333C144.652 31.5556 145.756 34.2393 145.756 37.3844C145.756 38.6541 145.548 39.8815 145.133 41.0667C144.719 42.2519 144.096 43.363 143.267 44.4L155 56.0444L153.044 58ZM134.422 46.0889C136.83 46.0889 138.876 45.237 140.561 43.5333C142.246 41.8296 143.089 39.7778 143.089 37.3778C143.089 34.9778 142.246 32.9259 140.561 31.2222C138.876 29.5185 136.83 28.6667 134.422 28.6667C131.99 28.6667 129.923 29.5185 128.22 31.2222C126.518 32.9259 125.667 34.9778 125.667 37.3778C125.667 39.7778 126.518 41.8296 128.22 43.5333C129.923 45.237 131.99 46.0889 134.422 46.0889Z" fill="#111111"/>
</g>
<mask id="mask1_13_1835" style="mask-type:alpha" maskUnits="userSpaceOnUse" x="33" y="18" width="48" height="48">
<rect x="33" y="18" width="48" height="48" fill="#D9D9D9"/>
</mask>
<g mask="url(#mask1_13_1835)">
<path d="M46.4375 54.5H52.5312V44.0833H61.4688V54.5H67.5625V38.25L57 30.125L46.4375 38.25V54.5ZM44 57V37L57 27L70 37V57H59.0312V46.5833H54.9688V57H44Z" fill="#111111"/>
</g>
<mask id="mask2_13_1835" style="mask-type:alpha" maskUnits="userSpaceOnUse" x="279" y="18" width="48" height="48">
<rect x="279" y="18" width="48" height="48" fill="#D9D9D9"/>
</mask>
<g mask="url(#mask2_13_1835)">
<path d="M291 58C290.34 58 289.775 57.7649 289.305 57.2948C288.835 56.8249 288.6 56.26 288.6 55.6V36.28C288.147 36.12 287.767 35.8348 287.46 35.4244C287.153 35.014 287 34.5392 287 34V28.4C287 27.74 287.235 27.1749 287.705 26.7048C288.175 26.2349 288.74 26 289.4 26H316.6C317.26 26 317.825 26.2349 318.295 26.7048C318.765 27.1749 319 27.74 319 28.4V34C319 34.5392 318.847 35.014 318.54 35.4244C318.233 35.8348 317.853 36.12 317.4 36.28V55.6C317.4 56.26 317.165 56.8249 316.695 57.2948C316.225 57.7649 315.66 58 315 58H291ZM291 36.4V55.6H315V36.4H291ZM289.4 34H316.6V28.4H289.4V34ZM298.2 44.4H307.8V42H298.2V44.4Z" fill="#111111"/>
</g>
<mask id="mask3_13_1835" style="mask-type:alpha" maskUnits="userSpaceOnUse" x="197" y="18" width="48" height="48">
<rect x="197" y="18" width="48" height="48" fill="#D9D9D9"/>
</mask>
<g mask="url(#mask3_13_1835)">
<path d="M216.505 46.5068V39.7824L231.634 24.6724C231.871 24.4351 232.135 24.2637 232.426 24.1582C232.716 24.0527 233.007 24 233.297 24C233.587 24 233.884 24.0593 234.188 24.178C234.492 24.2967 234.762 24.4747 235 24.712L238.287 28.0346C238.525 28.2719 238.703 28.5356 238.822 28.8257C238.941 29.1158 239 29.4059 239 29.6959C239 29.986 238.941 30.2827 238.822 30.5859C238.703 30.8892 238.525 31.1595 238.287 31.3968L223.238 46.5068H216.505ZM233.931 32.4648L236.624 29.6959L233.297 26.3733L230.564 29.1026L233.931 32.4648ZM209.376 56C208.743 56 208.188 55.7627 207.713 55.288C207.238 54.8133 207 54.2596 207 53.6267V29.8937C207 29.2608 207.238 28.707 207.713 28.2324C208.188 27.7577 208.743 27.5204 209.376 27.5204H225.416L214.129 38.7936V48.8801H224.109L235.515 37.4883V53.6267C235.515 54.2596 235.277 54.8133 234.802 55.288C234.327 55.7627 233.772 56 233.139 56H209.376Z" fill="#111111"/>
</g>
<path d="M60.712 80.84V83.768H53.632V80.84H60.712ZM52.456 79.952V79.352H56.8V78.464C54.916 78.404 53.848 77.912 53.848 77C53.848 76.04 55.048 75.548 57.16 75.536C59.272 75.548 60.472 76.04 60.472 77C60.472 77.912 59.416 78.404 57.544 78.464V79.352H61.888V79.952H52.456ZM52.96 75.08V74.48H56.8V73.4H57.544V74.48H61.312V75.08H52.96ZM54.352 83.168H59.992V81.416H54.352V83.168ZM54.64 77C54.628 77.588 55.576 77.924 57.16 77.936C58.744 77.924 59.692 77.588 59.704 77C59.692 76.412 58.744 76.088 57.16 76.088C55.576 76.088 54.628 76.412 54.64 77Z" fill="#111111"/>
<path d="M129.656 74V75.584H132.968V74H133.688V78.488H128.936V74H129.656ZM129.656 77.888H132.968V76.16H129.656V77.888ZM129.992 80.072V79.472H136.496V81.872H130.736V83.168H136.904V83.792H130.016V81.296H135.776V80.072H129.992ZM135.776 78.944V73.568H136.496V75.896H138.104V76.52H136.496V78.944H135.776ZM147.347 73.592V81.32H146.603V78.704H143.699V78.08H146.603V76.376H143.831C143.111 78.032 141.491 79.304 139.355 80L139.019 79.4C141.503 78.572 143.255 77 143.447 75.008H139.523V74.408H144.251C144.251 74.888 144.179 75.344 144.059 75.776H146.603V73.592H147.347ZM140.843 83.672V80.552H141.611V83.048H147.611V83.672H140.843Z" fill="#111111"/>
<path d="M213.64 74.024V74.672C213.64 75.392 213.64 76.292 213.412 77.504H214.912V78.128H205.456V77.504H212.656C212.908 76.268 212.908 75.368 212.92 74.672V74.648H206.68V74.024H213.64ZM206.608 79.88V79.256H213.688V81.776H207.352V83.168H213.952V83.768H206.632V81.176H212.968V79.88H206.608ZM218.875 75.8C218.863 76.772 219.451 78.104 220.543 78.836C221.623 78.128 222.211 76.832 222.211 75.8V74.432H222.955V75.8C222.943 77.072 223.759 78.404 225.091 78.968L224.683 79.544C223.639 79.076 222.907 78.188 222.571 77.156C222.247 78.176 221.563 79.148 220.531 79.64C219.487 79.136 218.803 78.128 218.479 77.096C218.131 78.104 217.387 79.052 216.379 79.544L215.971 78.968C217.279 78.368 218.119 76.94 218.131 75.8V74.432H218.875V75.8ZM215.827 82.472V81.848H225.283V82.472H215.827ZM234.694 73.568V83.912H233.974V73.568H234.694ZM226.366 81.296C229.198 79.952 230.722 77.84 230.902 75.32H226.822V74.72H231.646C231.646 77.636 230.17 80.276 226.774 81.92L226.366 81.296Z" fill="#111111"/>
<path d="M296.264 73.568V83.912H295.52V78.488H293.864V83.36H293.168V73.832H293.864V77.864H295.52V73.568H296.264ZM288.008 81.176V74.864H288.752V80.504C289.844 80.516 290.996 80.432 292.352 80.168L292.448 80.84C290.984 81.104 289.796 81.176 288.632 81.176H288.008ZM304.285 76.496C304.273 78.344 305.617 80.216 307.045 80.888L306.613 81.512C305.437 80.888 304.369 79.58 303.913 78.068C303.469 79.664 302.413 81.056 301.237 81.68L300.781 81.104C302.209 80.372 303.529 78.38 303.541 76.496V74.504H304.285V76.496ZM305.941 77.792V77.192H308.533V73.568H309.253V83.936H308.533V77.792H305.941ZM319.144 73.592V76.16H320.776V76.784H319.144V79.28H318.424V73.592H319.144ZM311.56 74.72V74.096H316.24V76.76H312.328V78.368H312.376C314.212 78.368 315.592 78.308 317.296 78.008L317.368 78.656C315.64 78.932 314.248 79.004 312.376 79.016H311.584V76.16H315.496V74.72H311.56ZM312.688 83.768V79.76H313.408V81.128H318.424V79.76H319.144V83.768H312.688ZM313.408 83.144H318.424V81.752H313.408V83.144Z" fill="#111111"/>
</svg>
